<mxfile host="app.diagrams.net" modified="2023-05-23T00:50:19.633Z" agent="Mozilla/5.0 (Windows NT 10.0; Win64; x64) AppleWebKit/537.36 (KHTML, like Gecko) Chrome/113.0.0.0 Safari/537.36" etag="21Vh0IipJudPN_jZBO9y" version="21.3.2" type="device">
  <diagram name="Página-1" id="AbqAAd4iGF2pX9Go6pDK">
    <mxGraphModel dx="778" dy="342" grid="1" gridSize="10" guides="1" tooltips="1" connect="1" arrows="1" fold="1" page="1" pageScale="1" pageWidth="827" pageHeight="1169" math="0" shadow="0">
      <root>
        <mxCell id="0" />
        <mxCell id="1" parent="0" />
        <mxCell id="if1atciai7N9362Ciekq-5" style="edgeStyle=orthogonalEdgeStyle;shape=link;rounded=0;orthogonalLoop=1;jettySize=auto;html=1;entryX=0.5;entryY=0;entryDx=0;entryDy=0;" edge="1" parent="1" source="if1atciai7N9362Ciekq-1" target="if1atciai7N9362Ciekq-2">
          <mxGeometry relative="1" as="geometry">
            <Array as="points">
              <mxPoint x="344" y="20" />
            </Array>
          </mxGeometry>
        </mxCell>
        <mxCell id="if1atciai7N9362Ciekq-6" style="edgeStyle=orthogonalEdgeStyle;shape=link;rounded=0;orthogonalLoop=1;jettySize=auto;html=1;entryX=0.5;entryY=0;entryDx=0;entryDy=0;" edge="1" parent="1" source="if1atciai7N9362Ciekq-1" target="if1atciai7N9362Ciekq-3">
          <mxGeometry relative="1" as="geometry">
            <Array as="points">
              <mxPoint x="170" y="20" />
            </Array>
          </mxGeometry>
        </mxCell>
        <mxCell id="if1atciai7N9362Ciekq-1" value="«interface»&lt;br&gt;&lt;b&gt;Payment&lt;/b&gt;" style="html=1;whiteSpace=wrap;" vertex="1" parent="1">
          <mxGeometry x="200" y="10" width="110" height="50" as="geometry" />
        </mxCell>
        <mxCell id="if1atciai7N9362Ciekq-2" value="&lt;p style=&quot;margin:0px;margin-top:4px;text-align:center;&quot;&gt;&lt;br&gt;«class»&lt;br&gt;&lt;b&gt;PayU&lt;/b&gt;&lt;br&gt;&lt;/p&gt;" style="verticalAlign=top;align=left;overflow=fill;fontSize=12;fontFamily=Helvetica;html=1;whiteSpace=wrap;" vertex="1" parent="1">
          <mxGeometry x="274" y="80" width="140" height="60" as="geometry" />
        </mxCell>
        <mxCell id="if1atciai7N9362Ciekq-3" value="&lt;p style=&quot;margin:0px;margin-top:4px;text-align:center;&quot;&gt;&lt;br&gt;«class»&lt;br&gt;&lt;b&gt;PayPal&lt;/b&gt;&lt;br&gt;&lt;/p&gt;" style="verticalAlign=top;align=left;overflow=fill;fontSize=12;fontFamily=Helvetica;html=1;whiteSpace=wrap;" vertex="1" parent="1">
          <mxGeometry x="100" y="80" width="140" height="60" as="geometry" />
        </mxCell>
        <mxCell id="if1atciai7N9362Ciekq-7" style="edgeStyle=orthogonalEdgeStyle;shape=flexArrow;rounded=0;orthogonalLoop=1;jettySize=auto;html=1;" edge="1" parent="1" source="if1atciai7N9362Ciekq-4">
          <mxGeometry relative="1" as="geometry">
            <mxPoint x="370" y="150" as="targetPoint" />
          </mxGeometry>
        </mxCell>
        <mxCell id="if1atciai7N9362Ciekq-8" style="edgeStyle=orthogonalEdgeStyle;shape=flexArrow;rounded=0;orthogonalLoop=1;jettySize=auto;html=1;" edge="1" parent="1" source="if1atciai7N9362Ciekq-4">
          <mxGeometry relative="1" as="geometry">
            <mxPoint x="120" y="150" as="targetPoint" />
          </mxGeometry>
        </mxCell>
        <mxCell id="if1atciai7N9362Ciekq-9" style="edgeStyle=orthogonalEdgeStyle;shape=flexArrow;rounded=0;orthogonalLoop=1;jettySize=auto;html=1;" edge="1" parent="1" source="if1atciai7N9362Ciekq-4">
          <mxGeometry relative="1" as="geometry">
            <mxPoint x="410" y="260" as="targetPoint" />
            <Array as="points">
              <mxPoint x="255" y="260" />
            </Array>
          </mxGeometry>
        </mxCell>
        <mxCell id="if1atciai7N9362Ciekq-4" value="&lt;p style=&quot;margin:0px;margin-top:4px;text-align:center;&quot;&gt;&lt;br&gt;«class»&lt;br&gt;&lt;b&gt;PaymentFacade&lt;/b&gt;&lt;br&gt;&lt;/p&gt;" style="verticalAlign=top;align=left;overflow=fill;fontSize=12;fontFamily=Helvetica;html=1;whiteSpace=wrap;" vertex="1" parent="1">
          <mxGeometry x="185" y="170" width="140" height="60" as="geometry" />
        </mxCell>
        <mxCell id="if1atciai7N9362Ciekq-11" style="edgeStyle=orthogonalEdgeStyle;shape=flexArrow;rounded=0;orthogonalLoop=1;jettySize=auto;html=1;" edge="1" parent="1" source="if1atciai7N9362Ciekq-10">
          <mxGeometry relative="1" as="geometry">
            <mxPoint x="600" y="250" as="targetPoint" />
          </mxGeometry>
        </mxCell>
        <mxCell id="if1atciai7N9362Ciekq-10" value="&lt;p style=&quot;margin:0px;margin-top:4px;text-align:center;&quot;&gt;&lt;br&gt;«class»&lt;br&gt;&lt;b&gt;Main&lt;/b&gt;&lt;/p&gt;" style="verticalAlign=top;align=left;overflow=fill;fontSize=12;fontFamily=Helvetica;html=1;whiteSpace=wrap;" vertex="1" parent="1">
          <mxGeometry x="414" y="220" width="140" height="60" as="geometry" />
        </mxCell>
        <mxCell id="if1atciai7N9362Ciekq-12" value="Client" style="shape=umlActor;verticalLabelPosition=bottom;verticalAlign=top;html=1;" vertex="1" parent="1">
          <mxGeometry x="610" y="210" width="30" height="60" as="geometry" />
        </mxCell>
      </root>
    </mxGraphModel>
  </diagram>
</mxfile>
